# xmcd
#
# Track frame offsets:
#	150
#	16943
#	34374
#	49486
#	64494
#	78250
#	98185
#	113512
#	126904
#	144363
#
# Disc length: 2288 seconds
#
# Revision: 0
# Processed by: cddbd v1.5.2PL0 Copyright (c) Steve Scherf et al.
# Submitted via: audiograbber 1.83.01
#
DISCID=8708ee0a
DTITLE=Charlie Daniels Band - Simple Man
DYEAR=1989
DGENRE=Southern Rock
TTITLE0=A Few More Rednecks
TTITLE1=Was It 26
TTITLE2=Oh Atlanta
TTITLE3=Midnight Wind
TTITLE4=Saturday Night Down South
TTITLE5=Play Me Some Fiddle
TTITLE6=Simple Man
TTITLE7=Old Rock 'n Roller
TTITLE8=Mister DJ
TTITLE9=It's My Life
EXTD=
EXTT0=
EXTT1=
EXTT2=
EXTT3=
EXTT4=
EXTT5=
EXTT6=
EXTT7=
EXTT8=
EXTT9=
PLAYORDER=
